HIERARCHY
ROOT pelvis
{
  OFFSET 0 100 0
  CHANNELS 6 Xposition Yposition Zposition Zrotation Xrotation Yrotation
  JOINT pelvis_right_femur
  {
    OFFSET -10.78128 -3.44521 -0.5502486
    CHANNELS 3 Zrotation Xrotation Yrotation
    JOINT right_femur_tibia
    {
      OFFSET -0.8047443 -44.0398 -0.1307829
      CHANNELS 3 Zrotation Xrotation Yrotation
      JOINT right_tibia_foot
      {
        OFFSET 3.006224 -47.83518 -5
        CHANNELS 3 Zrotation Xrotation Yrotation
        End Site
        {
          OFFSET 0 -5 15
        }
      }
    }
  }
  JOINT pelvis_left_femur
  {
    OFFSET 10.78128 -3.44521 -0.5502486
    CHANNELS 3 Zrotation Xrotation Yrotation
    JOINT left_femur_tibia
    {
      OFFSET 0.8047443 -44.0398 -0.1307829
      CHANNELS 3 Zrotation Xrotation Yrotation
      JOINT left_tibia_foot
      {
        OFFSET -4.370144 -48.10324 -4.275266
        CHANNELS 3 Zrotation Xrotation Yrotation
        End Site
        {
          OFFSET 0 -5 15
        }
      }
    }
  }
  JOINT pelvis_spine1
  {
    OFFSET 0 6.468898 -3.129235
    CHANNELS 3 Zrotation Xrotation Yrotation
    JOINT spine1
    {
      OFFSET 0 23.15396 4.99043
      CHANNELS 3 Zrotation Xrotation Yrotation
      JOINT spine2
      {
        OFFSET 0 20.79997 -5.064912
        CHANNELS 3 Zrotation Xrotation Yrotation
        JOINT neck
        {
          OFFSET 0 14.38658 9.616178
          CHANNELS 3 Zrotation Xrotation Yrotation
          End Site
          {
            OFFSET 0 20 0
          }
        }
      }
      JOINT right_manubrium
      {
        OFFSET -5.722621 16.35077 3.967754
        CHANNELS 3 Zrotation Xrotation Yrotation
        JOINT right_clavicle
        {
          OFFSET -13.16364 1.694482 -4.693211
          CHANNELS 3 Zrotation Xrotation Yrotation
          JOINT right_humerus
          {
            OFFSET -28.5034 -0.3100689 -2.792744
            CHANNELS 3 Zrotation Xrotation Yrotation
            JOINT right_radius
            {
              OFFSET -25.15693 0.02248979 -1.271978
              CHANNELS 3 Zrotation Xrotation Yrotation
              End Site
              {
                OFFSET -15 0 0
              }
            }
          }
        }
      }
      JOINT left_manubrium
      {
        OFFSET 5.722621 16.35077 3.967754
        CHANNELS 3 Zrotation Xrotation Yrotation
        JOINT left_clavicle
        {
          OFFSET 13.16364 1.694482 -4.693211
          CHANNELS 3 Zrotation Xrotation Yrotation
          JOINT left_humerus
          {
            OFFSET 29.39168 -1.063119 -2.237045
            CHANNELS 3 Zrotation Xrotation Yrotation
            JOINT left_radius
            {
              OFFSET 24.59957 -0.9528479 0.9047498
              CHANNELS 3 Zrotation Xrotation Yrotation
              End Site
              {
                OFFSET 15 -0 -0
              }
            }
          }
        }
      }
    }
  }
}
MOTION
Frames: 11
Frame Time: 0.0416666666667
-1525.296 61.47784 2601.674 -10.36658 -4.408043 -73.10014 1.455318 -1.42912 -4.132135 -0 36.16473 -0 -10.99134 10.50224 -0.4379997 -4.04902 0.6697236 -6.154208 -0 24.90848 -0 3.749059 -8.200052 16.47006 -1.243327 -2.017992 3.800862 -1.490391 14.51961 -4.646461 1.793891 23.53351 4.854552 2.913423 -16.36216 5.797059 -1.843061 -20.47256 11.31315 92.78281 16.27002 -14.64595 -0 0 11.32675 -28.10621 10.2251 14.1872 5.384428 -24.01226 -8.763413 -87.41514 10.45984 16.46121 0 0 -12.37317 13.97052 13.646 -4.107318
-1531.454 62.04337 2604.132 -10.02453 -4.21547 -72.74367 1.647035 -4.875502 -4.451066 -0 33.94941 -0 -11.55073 10.87004 -0.4883781 -4.282545 3.468534 -6.38465 -0 25.72042 -0 4.033532 -8.854473 16.041 -1.13525 -2.133606 3.457913 -1.194417 14.60468 -5.108492 1.744746 23.47093 4.903577 2.971777 -16.67777 5.804934 -1.846523 -20.09955 11.3397 93.47466 16.31143 -16.04045 -0 0 10.16973 -27.38466 10.2376 13.5975 5.587202 -24.77677 -8.929116 -86.90675 10.31168 15.34311 0 0 -13.98029 14.78737 13.81367 -4.999595
-1537.591 62.52003 2606.499 -9.665643 -3.976787 -72.43598 1.936392 -7.889454 -4.720602 -0 31.05606 -0 -12.13423 10.88527 -0.4924421 -4.368504 5.715086 -6.498991 -0 26.73883 -0 4.266312 -9.332125 15.62243 -0.9800001 -2.247436 3.202577 -0.8938529 14.69609 -5.539791 1.690709 23.38064 4.919485 3.020335 -17.00836 5.775866 -1.874207 -19.84222 11.38281 94.06613 16.35471 -17.29968 -0 0 9.206554 -26.66116 10.27557 13.04213 5.774009 -25.5196 -9.062157 -86.51547 10.14618 14.46145 0 0 -15.52253 15.54908 13.96348 -5.823077
-1543.733 62.9079 2608.784 -9.370843 -3.738685 -72.20242 2.288468 -10.26426 -4.931149 -0 27.93535 -0 -12.67127 10.7069 -0.4867904 -4.335918 7.347415 -6.460735 -0 28.17447 -0 4.376061 -9.569095 15.19784 -0.7894638 -2.337186 3.035214 -0.6260837 14.79492 -5.902997 1.644459 23.28885 4.900115 3.053401 -17.28367 5.713839 -1.926791 -19.6566 11.43655 94.55983 16.35559 -18.36174 -0 0 8.416372 -26.04921 10.3477 12.56705 5.920504 -26.18252 -9.173011 -86.21718 9.955644 13.7791 0 0 -16.88453 16.18834 14.06241 -6.513603
-1549.916 63.23604 2611.002 -9.195204 -3.537573 -72.05839 2.673249 -11.86659 -5.081261 -0 24.94462 -0 -13.10947 10.45865 -0.4962821 -4.21175 8.340456 -6.249479 -0 30.14258 -0 4.318413 -9.529869 14.75956 -0.5754686 -2.387231 2.95281 -0.4181611 14.90099 -6.172053 1.61492 23.21497 4.846075 3.067526 -17.45459 5.623939 -2.002723 -19.50922 11.49566 94.95555 16.28671 -19.18307 -0 0 7.782269 -25.62814 10.46003 12.2045 6.010003 -26.72248 -9.269746 -85.99302 9.737513 13.26517 0 0 -17.98263 16.65657 14.09118 -7.024914
-1556.179 63.5478 2613.172 -9.160649 -3.392922 -72.01151 3.068656 -12.62877 -5.172771 -0 22.30387 -0 -13.41875 10.2 -0.5300787 -4.012323 8.683112 -5.866938 -0 32.6233 -0 4.08358 -9.209593 14.31748 -0.3492253 -2.390702 2.952941 -0.2844885 15.01134 -6.332636 1.605993 23.16828 4.760392 3.061716 -17.50012 5.511781 -2.098081 -19.38792 11.55627 95.24436 16.14433 -19.73349 -0 0 7.30748 -25.4342 10.61282 11.97301 6.035256 -27.11171 -9.353913 -85.83739 9.499214 12.91313 0 0 -18.76423 16.92573 14.04581 -7.328977
-1562.555 63.88524 2615.314 -9.256589 -3.306037 -72.06423 3.460761 -12.53374 -5.206861 -0 20.09553 -0 -13.58968 9.919294 -0.5823691 -3.740091 8.362601 -5.338116 -0 35.45216 -0 3.695816 -8.632373 13.90184 -0.1215808 -2.349476 3.035982 -0.2275325 15.11938 -6.380463 1.616512 23.1476 4.648157 3.037144 -17.42742 5.383325 -2.206621 -19.30528 11.61577 95.40622 15.949 -19.99061 -0 0 7.022813 -25.46201 10.79889 11.87961 5.998243 -27.3349 -9.418827 -85.76055 9.260034 12.74835 0 0 -19.2015 16.98619 13.9362 -7.413267
-1569.058 64.27509 2617.446 -9.444787 -3.262493 -72.21603 3.841746 -11.60341 -5.182409 -0 18.28961 -0 -13.62994 9.543079 -0.6347191 -3.385656 7.360789 -4.708845 -0 38.331 -0 3.208239 -7.848812 13.5607 0.09633328 -2.273107 3.205204 -0.2398705 15.21505 -6.319274 1.640891 23.14275 4.516372 2.996681 -17.26787 5.244935 -2.320015 -19.29644 11.67246 95.4109 15.74173 -19.93646 -0 0 6.985503 -25.67094 11.00352 11.92223 5.908905 -27.38628 -9.450138 -85.78727 9.049882 12.82606 0 0 -19.28473 16.84378 13.78349 -7.278116
-1575.682 64.71762 2619.584 -9.666427 -3.236755 -72.46471 4.206466 -9.895922 -5.096707 -0 16.78015 -0 -13.56076 8.95696 -0.6590132 -2.934259 5.663575 -4.040647 -0 40.85592 -0 2.695304 -6.933444 13.35284 0.292563 -2.17732 3.464832 -0.3065294 15.28582 -6.159513 1.670132 23.13716 4.373957 2.944479 -17.07119 5.103547 -2.428338 -19.41243 11.72505 95.22219 15.57673 -19.55794 -0 0 7.269915 -25.99376 11.2055 12.09099 5.783372 -27.26831 -9.428477 -85.95251 8.904817 13.22091 0 0 -19.01889 16.51797 13.61711 -6.935878
-1582.397 65.17993 2621.738 -9.851884 -3.198561 -72.80676 4.548495 -7.51085 -4.947832 -0 15.429 -0 -13.41283 8.037302 -0.6220329 -2.375893 3.282022 -3.402971 -0 42.56917 -0 2.242858 -5.979885 13.33684 0.4543697 -2.081883 3.816263 -0.4076029 15.31871 -5.91765 1.693333 23.11149 4.231606 2.885591 -16.897 4.966778 -2.520964 -19.70851 11.77222 94.80592 15.51068 -18.85148 -0 0 7.949564 -26.34749 11.37972 12.36855 5.641632 -26.99204 -9.334123 -86.29427 8.859044 14.00776 0 0 -18.42402 16.04099 13.47095 -6.411849
-1589.148 65.59665 2623.912 -9.934891 -3.121227 -73.23715 4.856535 -4.596497 -4.737634 -0 14.11853 -0 -13.22005 6.693985 -0.4933111 -1.717248 0.280876 -2.862877 -0 43.04465 -0 1.934236 -5.090343 13.55686 0.5691539 -2.007287 4.253003 -0.5217711 15.30329 -5.615344 1.699982 23.04871 4.101119 2.825555 -16.80284 4.842842 -2.58799 -20.22724 11.8125 94.14245 15.5884 -17.83123 -0 0 9.07057 -26.6489 11.50138 12.7308 5.504262 -26.57818 -9.153468 -86.84288 8.933999 15.23395 0 0 -17.53774 15.45633 13.37767 -5.74521
